<svg width="25" height="25" viewBox="0 0 25 25" fill="none" xmlns="http://www.w3.org/2000/svg">
<g filter="url(#filter0_d_37_1380)">
<rect x="2" width="21" height="21" rx="5" fill="white"/>
<rect x="2.25" y="0.25" width="20.5" height="20.5" rx="4.75" stroke="black" stroke-width="0.5"/>
<g clip-path="url(#clip0_37_1380)">
<path d="M6.27148 5.8501C6.27148 6.04259 6.35125 6.2272 6.49324 6.36331C6.63522 6.49942 6.8278 6.57589 7.02859 6.57589H7.43238V15.1522C7.43305 15.7855 7.69574 16.3926 8.1628 16.8405C8.62987 17.2883 9.26318 17.5402 9.92378 17.541H16.1906C16.8512 17.5402 17.4845 17.2883 17.9516 16.8405C18.4187 16.3926 18.6813 15.7855 18.682 15.1522V6.57589H19.0858C19.2866 6.57589 19.4792 6.49942 19.6212 6.36331C19.7631 6.2272 19.8429 6.04259 19.8429 5.8501C19.8429 5.65761 19.7631 5.47301 19.6212 5.3369C19.4792 5.20079 19.2866 5.12432 19.0858 5.12432H16.4359V4.37531C16.4359 3.36405 15.5779 2.54102 14.523 2.54102H11.5914C10.5365 2.54102 9.67847 3.36357 9.67847 4.37531V5.12384H7.02859C6.8278 5.12384 6.63522 5.2003 6.49324 5.33641C6.35125 5.47252 6.27148 5.65761 6.27148 5.8501ZM11.1927 4.3758C11.1927 4.16435 11.3714 3.99307 11.5914 3.99307H14.523C14.743 3.99307 14.9217 4.16435 14.9217 4.3758V5.12432H11.1922V4.37531L11.1927 4.3758ZM8.9466 6.57589H17.1678V15.1522C17.1675 15.4006 17.0645 15.6388 16.8813 15.8145C16.6981 15.9902 16.4497 16.0891 16.1906 16.0894H9.92378C9.66465 16.0891 9.41626 15.9902 9.23307 15.8145C9.04989 15.6388 8.94687 15.4006 8.9466 15.1522V6.57589Z" fill="black"/>
<path d="M11.5469 14.722C11.7334 14.722 11.9122 14.6479 12.0441 14.516C12.1759 14.3842 12.25 14.2053 12.25 14.0188V8.79883C12.25 8.61235 12.1759 8.43351 12.0441 8.30164C11.9122 8.16978 11.7334 8.0957 11.5469 8.0957C11.3604 8.0957 11.1816 8.16978 11.0497 8.30164C10.9178 8.43351 10.8438 8.61235 10.8438 8.79883V14.0188C10.8438 14.2053 10.9178 14.3842 11.0497 14.516C11.1816 14.6479 11.3604 14.722 11.5469 14.722ZM15.0419 14.722C15.2284 14.722 15.4072 14.6479 15.5391 14.516C15.6709 14.3842 15.745 14.2053 15.745 14.0188V8.79883C15.745 8.61235 15.6709 8.43351 15.5391 8.30164C15.4072 8.16978 15.2284 8.0957 15.0419 8.0957C14.8554 8.0957 14.6766 8.16978 14.5447 8.30164C14.4128 8.43351 14.3387 8.61235 14.3387 8.79883V14.0188C14.3387 14.2053 14.4128 14.3842 14.5447 14.516C14.6766 14.6479 14.8554 14.722 15.0419 14.722Z" fill="black"/>
</g>
</g>
<defs>
<filter id="filter0_d_37_1380" x="0" y="0" width="25" height="25" filterUnits="userSpaceOnUse" color-interpolation-filters="sRGB">
<feFlood flood-opacity="0" result="BackgroundImageFix"/>
<feColorMatrix in="SourceAlpha" type="matrix" values="0 0 0 0 0 0 0 0 0 0 0 0 0 0 0 0 0 0 127 0" result="hardAlpha"/>
<feOffset dy="2"/>
<feGaussianBlur stdDeviation="1"/>
<feComposite in2="hardAlpha" operator="out"/>
<feColorMatrix type="matrix" values="0 0 0 0 0 0 0 0 0 0 0 0 0 0 0 0 0 0 0.25 0"/>
<feBlend mode="normal" in2="BackgroundImageFix" result="effect1_dropShadow_37_1380"/>
<feBlend mode="normal" in="SourceGraphic" in2="effect1_dropShadow_37_1380" result="shape"/>
</filter>
<clipPath id="clip0_37_1380">
<rect x="4.84375" y="2.54102" width="15" height="15" rx="4" fill="white"/>
</clipPath>
</defs>
</svg>
