<svg width="25" height="25" viewBox="0 0 25 25" fill="none" xmlns="http://www.w3.org/2000/svg">
<g filter="url(#filter0_d_37_1271)">
<rect x="2" width="21" height="21" rx="5" fill="white"/>
<rect x="2.25" y="0.25" width="20.5" height="20.5" rx="4.75" stroke="black" stroke-width="0.5"/>
<path d="M17.0106 4.52382C17.2138 4.72472 17.3749 4.96323 17.4848 5.22572C17.5947 5.4882 17.6511 5.76952 17.6509 6.05359C17.6507 6.33765 17.5939 6.6189 17.4836 6.88123C17.3734 7.14357 17.2119 7.38186 17.0084 7.58248L15.4621 9.10688L15.4303 9.07513L12.373 6.0535L13.9154 4.52558C14.1184 4.32446 14.3595 4.16486 14.625 4.0559C14.8904 3.94695 15.175 3.89079 15.4624 3.89063C15.7499 3.89046 16.0345 3.9463 16.3001 4.05495C16.5657 4.1636 16.807 4.32293 17.0102 4.52382H17.0106Z" fill="white"/>
<path d="M15.4299 9.07827L15.4616 9.11002L10.3477 14.1516L7.27148 11.1113L12.3726 6.05664L15.4299 9.07827Z" fill="black"/>
<path d="M10.348 14.1536L6.41602 14.9994L7.27179 11.1133L10.348 14.1536Z" fill="white"/>
<path d="M6.41545 15.35C6.44097 15.35 6.46642 15.3473 6.49136 15.342L10.4233 14.4962C10.49 14.4818 10.5512 14.4489 10.5995 14.4013L17.2597 7.83529C17.4964 7.60193 17.6842 7.32476 17.8125 7.01961C17.9407 6.71446 18.0068 6.38733 18.0071 6.0569C18.0073 5.72648 17.9416 5.39926 17.8138 5.09393C17.686 4.78861 17.4985 4.51118 17.2622 4.27751C17.2589 4.27423 17.2555 4.27102 17.252 4.26788C17.0168 4.03654 16.7378 3.85328 16.4308 3.72856C16.1239 3.60385 15.7951 3.54012 15.4633 3.54103H15.4622C15.1276 3.54026 14.7963 3.60515 14.4873 3.73193C14.1783 3.8587 13.8978 4.04484 13.6621 4.27956L12.1197 5.80751L7.01863 10.8621C6.97042 10.9099 6.93709 10.9703 6.9226 11.0362L6.06683 14.9223C6.0555 14.9738 6.05598 15.0271 6.06823 15.0784C6.08048 15.1297 6.1042 15.1776 6.13764 15.2186C6.17107 15.2596 6.21338 15.2927 6.26146 15.3155C6.30953 15.3382 6.36215 15.35 6.41545 15.35ZM14.9565 9.10947L10.3477 13.653L7.77559 11.1109L12.3726 6.55571L14.9565 9.10947ZM14.1673 4.77779C14.3369 4.60891 14.5387 4.47497 14.761 4.38375C14.9833 4.29254 15.2218 4.24585 15.4625 4.2464H15.4633C15.7037 4.24575 15.9418 4.29224 16.1639 4.38319C16.386 4.47413 16.5876 4.60773 16.7571 4.77624C16.76 4.77913 16.763 4.78191 16.7659 4.78467C17.1056 5.12495 17.2952 5.5843 17.2933 6.06233C17.2914 6.54037 17.0981 6.99821 16.7557 7.33582L15.4619 8.61128L12.8767 6.05628L14.1673 4.77779ZM7.48095 11.8173L9.63287 13.9441L6.88227 14.536L7.48095 11.8173ZM18.4869 16.9954H6.20062C6.10597 16.9954 6.0152 17.0326 5.94827 17.0987C5.88135 17.1649 5.84375 17.2546 5.84375 17.3481C5.84375 17.4417 5.88135 17.5314 5.94827 17.5975C6.0152 17.6637 6.10597 17.7008 6.20062 17.7008H18.4869C18.5815 17.7008 18.6723 17.6637 18.7392 17.5975C18.8062 17.5314 18.8438 17.4417 18.8438 17.3481C18.8438 17.2546 18.8062 17.1649 18.7392 17.0987C18.6723 17.0326 18.5815 16.9954 18.4869 16.9954Z" fill="black"/>
</g>
<defs>
<filter id="filter0_d_37_1271" x="0" y="0" width="25" height="25" filterUnits="userSpaceOnUse" color-interpolation-filters="sRGB">
<feFlood flood-opacity="0" result="BackgroundImageFix"/>
<feColorMatrix in="SourceAlpha" type="matrix" values="0 0 0 0 0 0 0 0 0 0 0 0 0 0 0 0 0 0 127 0" result="hardAlpha"/>
<feOffset dy="2"/>
<feGaussianBlur stdDeviation="1"/>
<feComposite in2="hardAlpha" operator="out"/>
<feColorMatrix type="matrix" values="0 0 0 0 0 0 0 0 0 0 0 0 0 0 0 0 0 0 0.25 0"/>
<feBlend mode="normal" in2="BackgroundImageFix" result="effect1_dropShadow_37_1271"/>
<feBlend mode="normal" in="SourceGraphic" in2="effect1_dropShadow_37_1271" result="shape"/>
</filter>
</defs>
</svg>
