<svg width="87" height="85" viewBox="0 0 87 85" fill="none" xmlns="http://www.w3.org/2000/svg">
<path d="M10.6729 63.7905C10.6729 70.8131 16.5909 76.5271 23.863 76.5271H48.8416C50.3443 76.5271 51.5603 75.3517 51.5603 73.9021C51.5603 73.1768 51.2556 72.5204 50.7633 72.0453C50.2715 71.5708 49.5924 71.2771 48.8416 71.2771H23.863C19.5884 71.2771 16.1104 67.9189 16.1104 63.7905V18.2913C16.1104 14.1628 19.5884 10.8047 23.863 10.8047H60.5157C64.793 10.8047 68.2711 14.1628 68.2711 18.2913V52.5163C68.2711 53.2413 68.5752 53.8975 69.0672 54.3726C69.5591 54.8475 70.2386 55.1413 70.9898 55.1413C72.4926 55.1413 73.7086 53.9659 73.7086 52.5163V18.2913C73.7086 11.2687 67.7905 5.55469 60.5157 5.55469H23.863C16.5909 5.55469 10.6729 11.2687 10.6729 18.2913V63.7905Z" fill="#333333"/>
<path d="M57.8979 38.4156H36.955C35.4523 38.4156 34.2363 39.5909 34.2363 41.0406C34.2363 42.4902 35.4523 43.6656 36.955 43.6656H57.8979C59.4007 43.6656 60.6167 42.4902 60.6167 41.0406C60.6167 39.5909 59.4007 38.4156 57.8979 38.4156ZM57.8979 25.7764H36.955C35.4523 25.7764 34.2363 26.9517 34.2363 28.4014C34.2363 29.851 35.4523 31.0264 36.955 31.0264H57.8979C59.4007 31.0264 60.6167 29.851 60.6167 28.4014C60.6167 26.9517 59.4007 25.7764 57.8979 25.7764ZM57.8979 51.0548H36.955C35.4523 51.0548 34.2363 52.2302 34.2363 53.6798C34.2363 55.1295 35.4523 56.3048 36.955 56.3048H57.8979C59.4007 56.3048 60.6167 55.1295 60.6167 53.6798C60.6167 52.2302 59.4007 51.0548 57.8979 51.0548ZM26.5367 25.7764H26.5102C25.0101 25.7764 23.8047 26.9517 23.8047 28.4014C23.8047 29.851 25.0366 31.0264 26.5367 31.0264C28.0395 31.0264 29.2555 29.851 29.2555 28.4014C29.2555 26.9517 28.0395 25.7764 26.5367 25.7764ZM26.5367 38.4156H26.5102C25.0101 38.4156 23.8047 39.5909 23.8047 41.0406C23.8047 42.4902 25.0366 43.6656 26.5367 43.6656C28.0395 43.6656 29.2555 42.4902 29.2555 41.0406C29.2555 39.5909 28.0395 38.4156 26.5367 38.4156ZM26.5367 51.0548H26.5102C25.0101 51.0548 23.8047 52.2302 23.8047 53.6798C23.8047 55.1295 25.0366 56.3048 26.5367 56.3048C28.0395 56.3048 29.2555 55.1295 29.2555 53.6798C29.2555 52.2302 28.0395 51.0548 26.5367 51.0548ZM63.7856 59.4718C63.3273 59.9417 63.0354 60.5661 63.0354 61.2626V66.2216H57.8979C57.1777 66.2216 56.5331 66.503 56.0469 66.9437C55.5168 67.4294 55.1808 68.0929 55.1792 68.8466C55.1792 70.2963 56.3952 71.4716 57.8979 71.4716H63.0354V76.4294C63.0354 77.879 64.2514 79.0544 65.7542 79.0544C67.2569 79.0544 68.4729 77.879 68.4729 76.4294V71.4716H73.6077C75.1105 71.4716 76.3265 70.2963 76.3265 68.8466C76.3265 67.397 75.1105 66.2216 73.6077 66.2216H68.4729V61.2626C68.4729 59.8129 67.2569 58.6376 65.7542 58.6376C64.9743 58.639 64.2881 58.9619 63.7856 59.4718Z" fill="#333333"/>
</svg>
