<svg width="60" height="60" viewBox="0 0 60 60" fill="none" xmlns="http://www.w3.org/2000/svg">
<g clip-path="url(#clip0_37_3380)">
<path d="M30 5C25.0555 5 20.222 6.46622 16.1108 9.21326C11.9995 11.9603 8.79521 15.8648 6.90302 20.4329C5.01083 25.0011 4.51575 30.0277 5.48038 34.8773C6.44501 39.7268 8.82603 44.1814 12.3223 47.6777C15.8187 51.174 20.2732 53.555 25.1228 54.5196C29.9723 55.4843 34.9989 54.9892 39.5671 53.097C44.1353 51.2048 48.0397 48.0005 50.7867 43.8893C53.5338 39.778 55 34.9445 55 30C55 26.717 54.3534 23.4661 53.097 20.4329C51.8406 17.3998 49.9991 14.6438 47.6777 12.3223C45.3562 10.0009 42.6002 8.15938 39.5671 6.90301C36.534 5.64664 33.2831 5 30 5ZM37.5 32.5H32.5V37.5C32.5 38.163 32.2366 38.7989 31.7678 39.2678C31.2989 39.7366 30.6631 40 30 40C29.337 40 28.7011 39.7366 28.2322 39.2678C27.7634 38.7989 27.5 38.163 27.5 37.5V32.5H22.5C21.837 32.5 21.2011 32.2366 20.7322 31.7678C20.2634 31.2989 20 30.663 20 30C20 29.337 20.2634 28.7011 20.7322 28.2322C21.2011 27.7634 21.837 27.5 22.5 27.5H27.5V22.5C27.5 21.837 27.7634 21.2011 28.2322 20.7322C28.7011 20.2634 29.337 20 30 20C30.6631 20 31.2989 20.2634 31.7678 20.7322C32.2366 21.2011 32.5 21.837 32.5 22.5V27.5H37.5C38.1631 27.5 38.7989 27.7634 39.2678 28.2322C39.7366 28.7011 40 29.337 40 30C40 30.663 39.7366 31.2989 39.2678 31.7678C38.7989 32.2366 38.1631 32.5 37.5 32.5Z" fill="black"/>
</g>
<defs>
<clipPath id="clip0_37_3380">
<rect width="60" height="60" fill="white"/>
</clipPath>
</defs>
</svg>
