<svg width="49" height="27" viewBox="0 0 49 27" fill="none" xmlns="http://www.w3.org/2000/svg">
<g filter="url(#filter0_d_91_925)">
<rect x="2" width="45" height="23" rx="10.2139" fill="#EFEEED"/>
<rect x="2.25" y="0.25" width="44.5" height="22.5" rx="9.9639" stroke="black" stroke-width="0.5"/>
<path d="M15.4812 14.2734C15.4812 14.1211 15.4539 13.9785 15.3992 13.8457C15.3484 13.7129 15.2605 13.5879 15.1355 13.4707C15.0066 13.3574 14.8386 13.2539 14.6316 13.1602C14.4285 13.0625 14.1746 12.9727 13.8699 12.8906C13.3972 12.7617 12.9812 12.6055 12.6218 12.4219C12.2664 12.2383 11.9753 12.0371 11.7488 11.8184C11.5222 11.5996 11.3503 11.3574 11.2332 11.0918C11.1199 10.8262 11.0632 10.5371 11.0632 10.2246C11.0632 9.86523 11.1394 9.53906 11.2917 9.24609C11.4441 8.95312 11.655 8.70312 11.9246 8.49609C12.1941 8.28906 12.5125 8.13086 12.8796 8.02148C13.2468 7.9082 13.6453 7.85156 14.075 7.85156C14.5203 7.85156 14.9265 7.91602 15.2937 8.04492C15.6648 8.17383 15.9832 8.35352 16.2488 8.58398C16.5144 8.81836 16.7214 9.0957 16.8699 9.41602C17.0183 9.73633 17.0925 10.0879 17.0925 10.4707H15.4871C15.4792 10.2793 15.4441 10.1035 15.3816 9.94336C15.323 9.7832 15.2351 9.64453 15.1179 9.52734C14.9968 9.41406 14.8464 9.32617 14.6667 9.26367C14.491 9.19727 14.2839 9.16406 14.0457 9.16406C13.8269 9.16406 13.6316 9.19141 13.4597 9.24609C13.2917 9.29688 13.1492 9.36914 13.032 9.46289C12.9148 9.56055 12.825 9.67578 12.7625 9.80859C12.7039 9.9375 12.6746 10.0781 12.6746 10.2305C12.6746 10.3906 12.7136 10.5352 12.7917 10.6641C12.8738 10.793 12.991 10.9082 13.1433 11.0098C13.2957 11.1152 13.4792 11.2109 13.6941 11.2969C13.9128 11.3828 14.1589 11.4629 14.4324 11.5371C14.7253 11.6191 15.0046 11.7188 15.2703 11.8359C15.5359 11.9531 15.78 12.0879 16.0027 12.2402C16.3386 12.4902 16.6062 12.7812 16.8054 13.1133C17.0046 13.4453 17.1042 13.8281 17.1042 14.2617C17.1042 14.6367 17.0281 14.9707 16.8757 15.2637C16.7273 15.5527 16.5203 15.7969 16.2546 15.9961C15.989 16.1992 15.6726 16.3535 15.3054 16.459C14.9382 16.5605 14.5378 16.6113 14.1042 16.6113C13.6785 16.6113 13.2566 16.5488 12.8386 16.4238C12.4246 16.2949 12.0632 16.1074 11.7546 15.8613C11.4617 15.6191 11.2292 15.334 11.0574 15.0059C10.8894 14.6777 10.8054 14.293 10.8054 13.8516H12.4226C12.4304 14.1094 12.4753 14.3301 12.5574 14.5137C12.6394 14.6973 12.7546 14.8477 12.9031 14.9648C13.0476 15.082 13.2214 15.168 13.4246 15.2227C13.6316 15.2773 13.8582 15.3047 14.1042 15.3047C14.323 15.3047 14.5164 15.2793 14.6843 15.2285C14.8562 15.1777 15.0007 15.1074 15.1179 15.0176C15.2351 14.9277 15.325 14.8203 15.3875 14.6953C15.45 14.5664 15.4812 14.4258 15.4812 14.2734ZM22.1461 16.5C22.107 16.4219 22.0738 16.332 22.0465 16.2305C22.0191 16.1289 21.9957 16.0215 21.9762 15.9082C21.8863 16.0059 21.7828 16.0977 21.6656 16.1836C21.5484 16.2695 21.4195 16.3438 21.2789 16.4062C21.1344 16.4727 20.9762 16.5234 20.8043 16.5586C20.6324 16.5977 20.4469 16.6172 20.2476 16.6172C19.9234 16.6172 19.6246 16.5703 19.3512 16.4766C19.0816 16.3828 18.8492 16.252 18.6539 16.084C18.4586 15.916 18.3062 15.7168 18.1969 15.4863C18.0875 15.252 18.0328 14.998 18.0328 14.7246C18.0328 14.373 18.1012 14.0625 18.2379 13.793C18.3746 13.5195 18.5797 13.2949 18.8531 13.1191C19.0992 12.959 19.4019 12.8379 19.7613 12.7559C20.1246 12.6699 20.5406 12.627 21.0094 12.627H21.9176V12.252C21.9176 12.1035 21.8941 11.9707 21.8472 11.8535C21.8004 11.7324 21.7301 11.6289 21.6363 11.543C21.5387 11.4531 21.4156 11.3848 21.2672 11.3379C21.1226 11.2871 20.9527 11.2617 20.7574 11.2617C20.5855 11.2617 20.4371 11.2832 20.3121 11.3262C20.1871 11.3652 20.0855 11.4219 20.0074 11.4961C19.9371 11.5625 19.8844 11.6426 19.8492 11.7363C19.818 11.8301 19.8023 11.9336 19.8023 12.0469H18.1734C18.1734 11.7773 18.232 11.5215 18.3492 11.2793C18.4703 11.0371 18.6461 10.8242 18.8765 10.6406C19.1031 10.457 19.3805 10.3125 19.7086 10.207C20.0406 10.0977 20.4195 10.043 20.8453 10.043C21.2281 10.043 21.5836 10.0898 21.9117 10.1836C22.2437 10.2773 22.5308 10.416 22.773 10.5996C23.0152 10.7832 23.2047 11.0156 23.3414 11.2969C23.4781 11.5742 23.5465 11.8965 23.5465 12.2637V14.9824C23.5465 15.3223 23.568 15.6035 23.6109 15.8262C23.6539 16.0488 23.7164 16.2402 23.7984 16.4004V16.5H22.1461ZM20.5933 15.3574C20.7574 15.3574 20.9097 15.3379 21.0504 15.2988C21.191 15.2598 21.318 15.209 21.4312 15.1465C21.5445 15.084 21.6422 15.0137 21.7242 14.9355C21.8062 14.8535 21.8707 14.7715 21.9176 14.6895V13.5996H21.0855C20.8316 13.5996 20.6148 13.625 20.4351 13.6758C20.2555 13.7227 20.109 13.7891 19.9957 13.875C19.8824 13.9648 19.7984 14.0723 19.7437 14.1973C19.689 14.3184 19.6617 14.4512 19.6617 14.5957C19.6617 14.709 19.6812 14.8145 19.7203 14.9121C19.7633 15.0059 19.8238 15.0859 19.9019 15.1523C19.9801 15.2148 20.0758 15.2656 20.189 15.3047C20.3062 15.3398 20.441 15.3574 20.5933 15.3574ZM27.2758 16.5L24.8559 10.1602H26.5551L27.9496 14.6309L28.0375 15.0762L28.1254 14.6309L29.5141 10.1602H31.2133L28.8051 16.5H27.2758ZM35.4114 16.6172C34.9231 16.6172 34.4797 16.5371 34.0813 16.377C33.6829 16.2168 33.3411 15.998 33.0559 15.7207C32.7708 15.4473 32.55 15.125 32.3938 14.7539C32.2415 14.3789 32.1653 13.9785 32.1653 13.5527V13.3184C32.1653 12.834 32.2415 12.3926 32.3938 11.9941C32.5461 11.5918 32.759 11.2461 33.0325 10.957C33.3059 10.668 33.6301 10.4434 34.0051 10.2832C34.3801 10.123 34.7883 10.043 35.2297 10.043C35.6868 10.043 36.093 10.1191 36.4485 10.2715C36.8079 10.4199 37.1125 10.6309 37.3625 10.9043C37.6086 11.1777 37.7961 11.5078 37.925 11.8945C38.054 12.2773 38.1184 12.7012 38.1184 13.166V13.8574H33.8176V13.875C33.8723 14.1289 33.9426 14.334 34.0286 14.4902C34.1145 14.6426 34.2297 14.7812 34.3743 14.9062C34.5227 15.0352 34.6926 15.1348 34.884 15.2051C35.0754 15.2754 35.2844 15.3105 35.511 15.3105C35.8313 15.3105 36.1418 15.25 36.4426 15.1289C36.7434 15.0078 36.9875 14.8262 37.175 14.584L37.9895 15.4629C37.7825 15.7559 37.4543 16.0215 37.0051 16.2598C36.5559 16.498 36.0247 16.6172 35.4114 16.6172ZM35.218 11.3613C35.0344 11.3613 34.8665 11.3945 34.7141 11.4609C34.5618 11.5234 34.429 11.6152 34.3157 11.7363C34.1985 11.8574 34.1008 12.002 34.0227 12.1699C33.9446 12.3379 33.886 12.5254 33.8469 12.7324H36.5188V12.6035C36.5188 12.4316 36.4875 12.2695 36.425 12.1172C36.3625 11.9648 36.2766 11.832 36.1672 11.7188C36.0579 11.6094 35.9231 11.5234 35.7629 11.4609C35.6067 11.3945 35.425 11.3613 35.218 11.3613Z" fill="black"/>
</g>
<defs>
<filter id="filter0_d_91_925" x="0" y="0" width="49" height="27" filterUnits="userSpaceOnUse" color-interpolation-filters="sRGB">
<feFlood flood-opacity="0" result="BackgroundImageFix"/>
<feColorMatrix in="SourceAlpha" type="matrix" values="0 0 0 0 0 0 0 0 0 0 0 0 0 0 0 0 0 0 127 0" result="hardAlpha"/>
<feOffset dy="2"/>
<feGaussianBlur stdDeviation="1"/>
<feComposite in2="hardAlpha" operator="out"/>
<feColorMatrix type="matrix" values="0 0 0 0 0 0 0 0 0 0 0 0 0 0 0 0 0 0 0.25 0"/>
<feBlend mode="normal" in2="BackgroundImageFix" result="effect1_dropShadow_91_925"/>
<feBlend mode="normal" in="SourceGraphic" in2="effect1_dropShadow_91_925" result="shape"/>
</filter>
</defs>
</svg>
