<svg width="176" height="15" viewBox="0 0 176 15" fill="none" xmlns="http://www.w3.org/2000/svg">
<mask id="path-1-outside-1_67_69" maskUnits="userSpaceOnUse" x="-0.5" y="-0.5" width="177" height="16" fill="black">
<rect fill="white" x="-0.5" y="-0.5" width="177" height="16"/>
<path d="M8.46094 10.7969C8.46094 10.5547 8.39844 10.3438 8.27344 10.1641C8.15625 9.98438 7.97656 9.82031 7.73438 9.67188C7.49219 9.53125 7.19141 9.40234 6.83203 9.28516C6.47266 9.16797 6.05469 9.05469 5.57812 8.94531C4.76562 8.73438 4.04297 8.52344 3.41016 8.3125C2.78516 8.09375 2.25781 7.82812 1.82812 7.51562C1.39844 7.20312 1.07422 6.82031 0.855469 6.36719C0.636719 5.90625 0.527344 5.33594 0.527344 4.65625C0.527344 4.01562 0.664062 3.44922 0.9375 2.95703C1.21875 2.45703 1.60156 2.03516 2.08594 1.69141C2.57031 1.35547 3.13672 1.10156 3.78516 0.929688C4.44141 0.75 5.14453 0.660156 5.89453 0.660156C6.67578 0.660156 7.40625 0.738281 8.08594 0.894531C8.76562 1.05078 9.35938 1.29688 9.86719 1.63281C10.3672 1.97656 10.7617 2.42188 11.0508 2.96875C11.3398 3.51562 11.4922 4.17578 11.5078 4.94922H8.23828C8.23828 4.68359 8.17969 4.4375 8.0625 4.21094C7.94531 3.97656 7.78125 3.77734 7.57031 3.61328C7.35938 3.44922 7.11328 3.32031 6.83203 3.22656C6.55078 3.13281 6.24609 3.08594 5.91797 3.08594C5.55078 3.08594 5.22656 3.125 4.94531 3.20312C4.66406 3.28125 4.42578 3.38672 4.23047 3.51953C4.03516 3.66016 3.88672 3.82031 3.78516 4C3.68359 4.17188 3.63281 4.35156 3.63281 4.53906C3.63281 4.78125 3.67969 4.98828 3.77344 5.16016C3.86719 5.32422 4.02344 5.46875 4.24219 5.59375C4.45312 5.72656 4.73047 5.84766 5.07422 5.95703C5.41797 6.06641 5.83984 6.17969 6.33984 6.29688C7.14453 6.48438 7.87109 6.69531 8.51953 6.92969C9.16797 7.15625 9.71875 7.43359 10.1719 7.76172C10.625 8.09766 10.9727 8.50391 11.2148 8.98047C11.457 9.45703 11.5781 10.0391 11.5781 10.7266C11.5781 11.3984 11.4336 11.9844 11.1445 12.4844C10.8633 12.9766 10.4727 13.3867 9.97266 13.7148C9.46484 14.043 8.86328 14.2891 8.16797 14.4531C7.48047 14.6094 6.73047 14.6875 5.91797 14.6875C5.44141 14.6875 4.96484 14.6562 4.48828 14.5938C4.01953 14.5391 3.57031 14.4414 3.14062 14.3008C2.70312 14.168 2.29688 13.9883 1.92188 13.7617C1.54688 13.5352 1.22266 13.2578 0.949219 12.9297C0.667969 12.6016 0.445312 12.2188 0.28125 11.7812C0.125 11.3359 0.0429688 10.8242 0.0351562 10.2461H3.30469C3.30469 10.6367 3.375 10.9648 3.51562 11.2305C3.66406 11.4883 3.86328 11.6953 4.11328 11.8516C4.36328 12.0078 4.65625 12.1211 4.99219 12.1914C5.32812 12.2617 5.6875 12.2969 6.07031 12.2969C6.46875 12.2969 6.81641 12.2539 7.11328 12.168C7.41016 12.082 7.66016 11.9688 7.86328 11.8281C8.05859 11.6875 8.20703 11.5273 8.30859 11.3477C8.41016 11.168 8.46094 10.9844 8.46094 10.7969ZM29.0831 7.64453L31.2863 0.847656H34.8956V14.5H31.9191V6.13281L30.1613 11.6406L28.0284 11.6289L26.1769 5.89844V14.5H23.2003V0.847656H26.9034L29.0831 7.64453ZM54.9553 11.9102H49.6116L48.6741 14.5H45.3459L50.678 0.847656H53.842L59.2444 14.5H55.928L54.9553 11.9102ZM50.4905 9.51953H54.0647L52.342 4.85547L52.26 4.64453L52.1897 4.85547L50.4905 9.51953ZM78.3431 10.7969C78.3431 10.5547 78.2806 10.3438 78.1556 10.1641C78.0384 9.98438 77.8587 9.82031 77.6166 9.67188C77.3744 9.53125 77.0736 9.40234 76.7142 9.28516C76.3548 9.16797 75.9369 9.05469 75.4603 8.94531C74.6478 8.73438 73.9252 8.52344 73.2923 8.3125C72.6673 8.09375 72.14 7.82812 71.7103 7.51562C71.2806 7.20312 70.9564 6.82031 70.7377 6.36719C70.5189 5.90625 70.4095 5.33594 70.4095 4.65625C70.4095 4.01562 70.5462 3.44922 70.8197 2.95703C71.1009 2.45703 71.4837 2.03516 71.9681 1.69141C72.4525 1.35547 73.0189 1.10156 73.6673 0.929688C74.3236 0.75 75.0267 0.660156 75.7767 0.660156C76.558 0.660156 77.2884 0.738281 77.9681 0.894531C78.6478 1.05078 79.2416 1.29688 79.7494 1.63281C80.2494 1.97656 80.6439 2.42188 80.933 2.96875C81.222 3.51562 81.3744 4.17578 81.39 4.94922H78.1205C78.1205 4.68359 78.0619 4.4375 77.9447 4.21094C77.8275 3.97656 77.6634 3.77734 77.4525 3.61328C77.2416 3.44922 76.9955 3.32031 76.7142 3.22656C76.433 3.13281 76.1283 3.08594 75.8002 3.08594C75.433 3.08594 75.1087 3.125 74.8275 3.20312C74.5462 3.28125 74.308 3.38672 74.1127 3.51953C73.9173 3.66016 73.7689 3.82031 73.6673 4C73.5658 4.17188 73.515 4.35156 73.515 4.53906C73.515 4.78125 73.5619 4.98828 73.6556 5.16016C73.7494 5.32422 73.9056 5.46875 74.1244 5.59375C74.3353 5.72656 74.6127 5.84766 74.9564 5.95703C75.3002 6.06641 75.722 6.17969 76.222 6.29688C77.0267 6.48438 77.7533 6.69531 78.4017 6.92969C79.0502 7.15625 79.6009 7.43359 80.0541 7.76172C80.5072 8.09766 80.8548 8.50391 81.097 8.98047C81.3392 9.45703 81.4603 10.0391 81.4603 10.7266C81.4603 11.3984 81.3158 11.9844 81.0267 12.4844C80.7455 12.9766 80.3548 13.3867 79.8548 13.7148C79.347 14.043 78.7455 14.2891 78.0502 14.4531C77.3627 14.6094 76.6127 14.6875 75.8002 14.6875C75.3236 14.6875 74.847 14.6562 74.3705 14.5938C73.9017 14.5391 73.4525 14.4414 73.0228 14.3008C72.5853 14.168 72.1791 13.9883 71.8041 13.7617C71.4291 13.5352 71.1048 13.2578 70.8314 12.9297C70.5502 12.6016 70.3275 12.2188 70.1634 11.7812C70.0072 11.3359 69.9252 10.8242 69.9173 10.2461H73.1869C73.1869 10.6367 73.2572 10.9648 73.3978 11.2305C73.5462 11.4883 73.7455 11.6953 73.9955 11.8516C74.2455 12.0078 74.5384 12.1211 74.8744 12.1914C75.2103 12.2617 75.5697 12.2969 75.9525 12.2969C76.3509 12.2969 76.6986 12.2539 76.9955 12.168C77.2923 12.082 77.5423 11.9688 77.7455 11.8281C77.9408 11.6875 78.0892 11.5273 78.1908 11.3477C78.2923 11.168 78.3431 10.9844 78.3431 10.7969ZM103.958 14.5H100.711V9.19141H96.5864V14.5H93.3403V0.847656H96.5864V6.57812H100.711V0.847656H103.958V14.5ZM140.632 0.859375H150.37V3.50781H147.1V11.8516H150.37V14.5H140.632V11.8516H143.819V3.50781H140.632V0.859375ZM175.363 3.46094H170.547V14.5H167.254V3.46094H162.543V0.847656H175.363V3.46094Z"/>
</mask>
<path d="M8.46094 10.7969C8.46094 10.5547 8.39844 10.3438 8.27344 10.1641C8.15625 9.98438 7.97656 9.82031 7.73438 9.67188C7.49219 9.53125 7.19141 9.40234 6.83203 9.28516C6.47266 9.16797 6.05469 9.05469 5.57812 8.94531C4.76562 8.73438 4.04297 8.52344 3.41016 8.3125C2.78516 8.09375 2.25781 7.82812 1.82812 7.51562C1.39844 7.20312 1.07422 6.82031 0.855469 6.36719C0.636719 5.90625 0.527344 5.33594 0.527344 4.65625C0.527344 4.01562 0.664062 3.44922 0.9375 2.95703C1.21875 2.45703 1.60156 2.03516 2.08594 1.69141C2.57031 1.35547 3.13672 1.10156 3.78516 0.929688C4.44141 0.75 5.14453 0.660156 5.89453 0.660156C6.67578 0.660156 7.40625 0.738281 8.08594 0.894531C8.76562 1.05078 9.35938 1.29688 9.86719 1.63281C10.3672 1.97656 10.7617 2.42188 11.0508 2.96875C11.3398 3.51562 11.4922 4.17578 11.5078 4.94922H8.23828C8.23828 4.68359 8.17969 4.4375 8.0625 4.21094C7.94531 3.97656 7.78125 3.77734 7.57031 3.61328C7.35938 3.44922 7.11328 3.32031 6.83203 3.22656C6.55078 3.13281 6.24609 3.08594 5.91797 3.08594C5.55078 3.08594 5.22656 3.125 4.94531 3.20312C4.66406 3.28125 4.42578 3.38672 4.23047 3.51953C4.03516 3.66016 3.88672 3.82031 3.78516 4C3.68359 4.17188 3.63281 4.35156 3.63281 4.53906C3.63281 4.78125 3.67969 4.98828 3.77344 5.16016C3.86719 5.32422 4.02344 5.46875 4.24219 5.59375C4.45312 5.72656 4.73047 5.84766 5.07422 5.95703C5.41797 6.06641 5.83984 6.17969 6.33984 6.29688C7.14453 6.48438 7.87109 6.69531 8.51953 6.92969C9.16797 7.15625 9.71875 7.43359 10.1719 7.76172C10.625 8.09766 10.9727 8.50391 11.2148 8.98047C11.457 9.45703 11.5781 10.0391 11.5781 10.7266C11.5781 11.3984 11.4336 11.9844 11.1445 12.4844C10.8633 12.9766 10.4727 13.3867 9.97266 13.7148C9.46484 14.043 8.86328 14.2891 8.16797 14.4531C7.48047 14.6094 6.73047 14.6875 5.91797 14.6875C5.44141 14.6875 4.96484 14.6562 4.48828 14.5938C4.01953 14.5391 3.57031 14.4414 3.14062 14.3008C2.70312 14.168 2.29688 13.9883 1.92188 13.7617C1.54688 13.5352 1.22266 13.2578 0.949219 12.9297C0.667969 12.6016 0.445312 12.2188 0.28125 11.7812C0.125 11.3359 0.0429688 10.8242 0.0351562 10.2461H3.30469C3.30469 10.6367 3.375 10.9648 3.51562 11.2305C3.66406 11.4883 3.86328 11.6953 4.11328 11.8516C4.36328 12.0078 4.65625 12.1211 4.99219 12.1914C5.32812 12.2617 5.6875 12.2969 6.07031 12.2969C6.46875 12.2969 6.81641 12.2539 7.11328 12.168C7.41016 12.082 7.66016 11.9688 7.86328 11.8281C8.05859 11.6875 8.20703 11.5273 8.30859 11.3477C8.41016 11.168 8.46094 10.9844 8.46094 10.7969ZM29.0831 7.64453L31.2863 0.847656H34.8956V14.5H31.9191V6.13281L30.1613 11.6406L28.0284 11.6289L26.1769 5.89844V14.5H23.2003V0.847656H26.9034L29.0831 7.64453ZM54.9553 11.9102H49.6116L48.6741 14.5H45.3459L50.678 0.847656H53.842L59.2444 14.5H55.928L54.9553 11.9102ZM50.4905 9.51953H54.0647L52.342 4.85547L52.26 4.64453L52.1897 4.85547L50.4905 9.51953ZM78.3431 10.7969C78.3431 10.5547 78.2806 10.3438 78.1556 10.1641C78.0384 9.98438 77.8587 9.82031 77.6166 9.67188C77.3744 9.53125 77.0736 9.40234 76.7142 9.28516C76.3548 9.16797 75.9369 9.05469 75.4603 8.94531C74.6478 8.73438 73.9252 8.52344 73.2923 8.3125C72.6673 8.09375 72.14 7.82812 71.7103 7.51562C71.2806 7.20312 70.9564 6.82031 70.7377 6.36719C70.5189 5.90625 70.4095 5.33594 70.4095 4.65625C70.4095 4.01562 70.5462 3.44922 70.8197 2.95703C71.1009 2.45703 71.4837 2.03516 71.9681 1.69141C72.4525 1.35547 73.0189 1.10156 73.6673 0.929688C74.3236 0.75 75.0267 0.660156 75.7767 0.660156C76.558 0.660156 77.2884 0.738281 77.9681 0.894531C78.6478 1.05078 79.2416 1.29688 79.7494 1.63281C80.2494 1.97656 80.6439 2.42188 80.933 2.96875C81.222 3.51562 81.3744 4.17578 81.39 4.94922H78.1205C78.1205 4.68359 78.0619 4.4375 77.9447 4.21094C77.8275 3.97656 77.6634 3.77734 77.4525 3.61328C77.2416 3.44922 76.9955 3.32031 76.7142 3.22656C76.433 3.13281 76.1283 3.08594 75.8002 3.08594C75.433 3.08594 75.1087 3.125 74.8275 3.20312C74.5462 3.28125 74.308 3.38672 74.1127 3.51953C73.9173 3.66016 73.7689 3.82031 73.6673 4C73.5658 4.17188 73.515 4.35156 73.515 4.53906C73.515 4.78125 73.5619 4.98828 73.6556 5.16016C73.7494 5.32422 73.9056 5.46875 74.1244 5.59375C74.3353 5.72656 74.6127 5.84766 74.9564 5.95703C75.3002 6.06641 75.722 6.17969 76.222 6.29688C77.0267 6.48438 77.7533 6.69531 78.4017 6.92969C79.0502 7.15625 79.6009 7.43359 80.0541 7.76172C80.5072 8.09766 80.8548 8.50391 81.097 8.98047C81.3392 9.45703 81.4603 10.0391 81.4603 10.7266C81.4603 11.3984 81.3158 11.9844 81.0267 12.4844C80.7455 12.9766 80.3548 13.3867 79.8548 13.7148C79.347 14.043 78.7455 14.2891 78.0502 14.4531C77.3627 14.6094 76.6127 14.6875 75.8002 14.6875C75.3236 14.6875 74.847 14.6562 74.3705 14.5938C73.9017 14.5391 73.4525 14.4414 73.0228 14.3008C72.5853 14.168 72.1791 13.9883 71.8041 13.7617C71.4291 13.5352 71.1048 13.2578 70.8314 12.9297C70.5502 12.6016 70.3275 12.2188 70.1634 11.7812C70.0072 11.3359 69.9252 10.8242 69.9173 10.2461H73.1869C73.1869 10.6367 73.2572 10.9648 73.3978 11.2305C73.5462 11.4883 73.7455 11.6953 73.9955 11.8516C74.2455 12.0078 74.5384 12.1211 74.8744 12.1914C75.2103 12.2617 75.5697 12.2969 75.9525 12.2969C76.3509 12.2969 76.6986 12.2539 76.9955 12.168C77.2923 12.082 77.5423 11.9688 77.7455 11.8281C77.9408 11.6875 78.0892 11.5273 78.1908 11.3477C78.2923 11.168 78.3431 10.9844 78.3431 10.7969ZM103.958 14.5H100.711V9.19141H96.5864V14.5H93.3403V0.847656H96.5864V6.57812H100.711V0.847656H103.958V14.5ZM140.632 0.859375H150.37V3.50781H147.1V11.8516H150.37V14.5H140.632V11.8516H143.819V3.50781H140.632V0.859375ZM175.363 3.46094H170.547V14.5H167.254V3.46094H162.543V0.847656H175.363V3.46094Z" fill="#1E1B1B"/>
<path d="M8.27344 10.1641L7.85463 10.4372L7.85872 10.4435L7.86298 10.4496L8.27344 10.1641ZM7.73438 9.67188L7.99573 9.24545L7.98544 9.23948L7.73438 9.67188ZM5.57812 8.94531L5.45248 9.42927L5.45936 9.43105L5.46628 9.43264L5.57812 8.94531ZM3.41016 8.3125L3.24496 8.78448L3.25204 8.78684L3.41016 8.3125ZM0.855469 6.36719L0.403746 6.58156L0.405193 6.58456L0.855469 6.36719ZM0.9375 2.95703L0.501706 2.7119L0.500421 2.71421L0.9375 2.95703ZM2.08594 1.69141L1.80097 1.28052L1.79656 1.28365L2.08594 1.69141ZM3.78516 0.929688L3.91327 1.41301L3.9172 1.41194L3.78516 0.929688ZM9.86719 1.63281L10.1505 1.22073L10.1431 1.2158L9.86719 1.63281ZM11.5078 4.94922V5.44922H12.018L12.0077 4.93912L11.5078 4.94922ZM8.23828 4.94922H7.73828V5.44922H8.23828V4.94922ZM8.0625 4.21094L7.61524 4.43457L7.61839 4.44065L8.0625 4.21094ZM4.23047 3.51953L3.94921 3.10592L3.93832 3.11376L4.23047 3.51953ZM3.78516 4L4.2157 4.25441L4.22044 4.24603L3.78516 4ZM3.77344 5.16016L3.3344 5.39963L3.33932 5.40823L3.77344 5.16016ZM4.24219 5.59375L4.50859 5.17063L4.49954 5.16493L4.49026 5.15963L4.24219 5.59375ZM6.33984 6.29688L6.22575 6.78368L6.22638 6.78383L6.33984 6.29688ZM8.51953 6.92969L8.34956 7.39994L8.35461 7.40171L8.51953 6.92969ZM10.1719 7.76172L10.4697 7.36004L10.4651 7.35675L10.1719 7.76172ZM11.1445 12.4844L10.7117 12.2341L10.7104 12.2363L11.1445 12.4844ZM9.97266 13.7148L10.244 14.1348L10.247 14.1329L9.97266 13.7148ZM8.16797 14.4531L8.27878 14.9407L8.28279 14.9398L8.16797 14.4531ZM4.48828 14.5938L4.5533 14.0979L4.54622 14.0971L4.48828 14.5938ZM3.14062 14.3008L3.29618 13.8255L3.28587 13.8223L3.14062 14.3008ZM0.949219 12.9297L1.33337 12.6096L1.32885 12.6043L0.949219 12.9297ZM0.28125 11.7812L-0.190657 11.9468L-0.186915 11.9568L0.28125 11.7812ZM0.0351562 10.2461V9.74609H-0.471646L-0.464798 10.2528L0.0351562 10.2461ZM3.30469 10.2461H3.80469V9.74609H3.30469V10.2461ZM3.51562 11.2305L3.07373 11.4644L3.07788 11.4723L3.08231 11.48L3.51562 11.2305ZM7.86328 11.8281L8.14793 12.2393L8.15543 12.2339L7.86328 11.8281ZM8.96094 10.7969C8.96094 10.464 8.87335 10.1509 8.68389 9.87853L7.86298 10.4496C7.92352 10.5366 7.96094 10.6454 7.96094 10.7969H8.96094ZM8.69224 9.89093C8.52365 9.63242 8.28149 9.42076 7.99566 9.24557L7.47309 10.0982C7.67163 10.2199 7.78885 10.3363 7.85463 10.4372L8.69224 9.89093ZM7.98544 9.23948C7.70439 9.07629 7.36907 8.93437 6.98704 8.80979L6.67702 9.76052C7.01374 9.87032 7.27999 9.98621 7.48331 10.1043L7.98544 9.23948ZM6.98704 8.80979C6.61006 8.68686 6.17712 8.56979 5.68997 8.45798L5.46628 9.43264C5.93225 9.53959 6.33526 9.64908 6.67702 9.76052L6.98704 8.80979ZM5.70377 8.46136C4.89955 8.25257 4.18806 8.04475 3.56827 7.83816L3.25204 8.78684C3.89788 9.00212 4.6317 9.21618 5.45248 9.42927L5.70377 8.46136ZM3.57533 7.84057C2.98555 7.63415 2.50415 7.38903 2.12221 7.11126L1.53404 7.91999C2.01148 8.26722 2.58477 8.55335 3.24498 8.78443L3.57533 7.84057ZM2.12221 7.11126C1.75536 6.84445 1.48663 6.52451 1.30574 6.14981L0.405193 6.58456C0.661805 7.11612 1.04152 7.5618 1.53404 7.91999L2.12221 7.11126ZM1.30718 6.15282C1.12895 5.77726 1.02734 5.28526 1.02734 4.65625H0.0273438C0.0273438 5.38662 0.144487 6.03524 0.403756 6.58156L1.30718 6.15282ZM1.02734 4.65625C1.02734 4.08873 1.14781 3.60803 1.37458 3.19985L0.500421 2.71421C0.180312 3.29041 0.0273438 3.94252 0.0273438 4.65625H1.02734ZM1.37329 3.20216C1.61705 2.76881 1.94896 2.40173 2.37531 2.09916L1.79656 1.28365C1.25416 1.66858 0.820454 2.14525 0.501712 2.7119L1.37329 3.20216ZM2.37089 2.10226C2.80149 1.80362 3.31327 1.57203 3.91326 1.413L3.65705 0.446377C2.96017 0.631092 2.33914 0.907316 1.80099 1.28055L2.37089 2.10226ZM3.9172 1.41194C4.52628 1.24516 5.18463 1.16016 5.89453 1.16016V0.160156C5.10443 0.160156 4.35653 0.254836 3.65311 0.447438L3.9172 1.41194ZM5.89453 1.16016C6.64252 1.16016 7.33506 1.23496 7.97392 1.38182L8.19796 0.407241C7.47744 0.241606 6.70904 0.160156 5.89453 0.160156V1.16016ZM7.97392 1.38182C8.6036 1.52658 9.14018 1.75137 9.59132 2.04982L10.1431 1.2158C9.57857 0.842377 8.92765 0.574986 8.19796 0.407241L7.97392 1.38182ZM9.58392 2.04483C10.016 2.34191 10.3567 2.72549 10.6087 3.2024L11.4928 2.7351C11.1668 2.11826 10.7183 1.61122 10.1505 1.22079L9.58392 2.04483ZM10.6087 3.2024C10.8533 3.66518 10.9935 4.24479 11.0079 4.95932L12.0077 4.93912C11.9909 4.10678 11.8263 3.36607 11.4928 2.7351L10.6087 3.2024ZM11.5078 4.44922H8.23828V5.44922H11.5078V4.44922ZM8.73828 4.94922C8.73828 4.60707 8.66206 4.28176 8.50661 3.98123L7.61839 4.44065C7.69732 4.59324 7.73828 4.76011 7.73828 4.94922H8.73828ZM8.50971 3.98733C8.35846 3.68482 8.14595 3.42757 7.87728 3.21861L7.26334 4.00796C7.41655 4.12712 7.53216 4.2683 7.61529 4.43454L8.50971 3.98733ZM7.87728 3.21861C7.61698 3.01615 7.31932 2.86195 6.99015 2.75222L6.67392 3.7009C6.90724 3.77868 7.10177 3.88229 7.26334 4.00796L7.87728 3.21861ZM6.99015 2.75222C6.65277 2.63976 6.29414 2.58594 5.91797 2.58594V3.58594C6.19805 3.58594 6.44879 3.62586 6.67392 3.7009L6.99015 2.75222ZM5.91797 2.58594C5.51663 2.58594 5.14583 2.62849 4.81149 2.72137L5.07913 3.68488C5.30729 3.62151 5.58493 3.58594 5.91797 3.58594V2.58594ZM4.81149 2.72137C4.48963 2.81077 4.19887 2.93637 3.94931 3.10607L4.51162 3.93299C4.65269 3.83707 4.83849 3.75173 5.07913 3.68488L4.81149 2.72137ZM3.93832 3.11376C3.69398 3.28969 3.49247 3.50169 3.34987 3.75397L4.22044 4.24603C4.28097 4.13893 4.37633 4.03063 4.52262 3.9253L3.93832 3.11376ZM3.35469 3.74564C3.21067 3.98937 3.13281 4.25625 3.13281 4.53906H4.13281C4.13281 4.44688 4.15652 4.35438 4.21562 4.25436L3.35469 3.74564ZM3.13281 4.53906C3.13281 4.84534 3.19225 5.13881 3.33449 5.39958L4.21239 4.92073C4.16712 4.83775 4.13281 4.71716 4.13281 4.53906H3.13281ZM3.33932 5.40823C3.48975 5.67149 3.72288 5.87288 3.99412 6.02787L4.49026 5.15963C4.324 5.06462 4.24462 4.97694 4.20756 4.91209L3.33932 5.40823ZM3.97578 6.01687C4.23462 6.17984 4.55479 6.31646 4.92262 6.43349L5.22582 5.48057C4.90615 5.37885 4.67163 5.27329 4.50859 5.17063L3.97578 6.01687ZM4.92262 6.43349C5.28268 6.54806 5.71792 6.66466 6.22575 6.78368L6.45394 5.81007C5.96176 5.69471 5.55326 5.58475 5.22582 5.48057L4.92262 6.43349ZM6.22638 6.78383C7.01554 6.96771 7.72281 7.17338 8.34957 7.39991L8.68949 6.45946C8.01937 6.21725 7.27352 6.00104 6.45331 5.80992L6.22638 6.78383ZM8.35461 7.40171C8.96724 7.61576 9.47254 7.87263 9.87862 8.16669L10.4651 7.35675C9.96496 6.99456 9.36869 6.69674 8.68445 6.45767L8.35461 7.40171ZM9.8741 8.16337C10.2685 8.4558 10.5639 8.80329 10.7691 9.20699L11.6606 8.75394C11.3814 8.20452 10.9815 7.73951 10.4697 7.36006L9.8741 8.16337ZM10.7691 9.20699C10.9669 9.59621 11.0781 10.096 11.0781 10.7266H12.0781C12.0781 9.98216 11.9472 9.31785 11.6606 8.75394L10.7691 9.20699ZM11.0781 10.7266C11.0781 11.3251 10.95 11.8218 10.7117 12.2341L11.5774 12.7346C11.9172 12.1469 12.0781 11.4718 12.0781 10.7266H11.0781ZM10.7104 12.2363C10.4704 12.6563 10.1361 13.0095 9.69833 13.2968L10.247 14.1329C10.8092 13.7639 11.2561 13.2969 11.5787 12.7324L10.7104 12.2363ZM9.7013 13.2949C9.2493 13.5869 8.70271 13.8132 8.05314 13.9665L8.28279 14.9398C9.02385 14.7649 9.68039 14.499 10.244 14.1348L9.7013 13.2949ZM8.05716 13.9656C7.41103 14.1124 6.6987 14.1875 5.91797 14.1875V15.1875C6.76223 15.1875 7.54991 15.1063 8.27878 14.9407L8.05716 13.9656ZM5.91797 14.1875C5.46333 14.1875 5.00849 14.1577 4.5533 14.098L4.42326 15.0895C4.9212 15.1548 5.41948 15.1875 5.91797 15.1875V14.1875ZM4.54622 14.0971C4.10918 14.0461 3.69275 13.9554 3.29614 13.8256L2.98511 14.776C3.44788 14.9274 3.92988 15.032 4.43034 15.0904L4.54622 14.0971ZM3.28587 13.8223C2.88636 13.7011 2.51839 13.5379 2.18043 13.3338L1.66332 14.1897C2.07536 14.4386 2.51989 14.6349 2.99538 14.7792L3.28587 13.8223ZM2.18043 13.3338C1.85174 13.1352 1.57028 12.8939 1.33333 12.6096L0.565108 13.2498C0.875031 13.6217 1.24201 13.9351 1.66332 14.1897L2.18043 13.3338ZM1.32885 12.6043C1.08862 12.324 0.894622 11.9929 0.749415 11.6057L-0.186915 11.9568C-0.00399666 12.4446 0.247318 12.8791 0.56959 13.2551L1.32885 12.6043ZM0.75305 11.6157C0.618225 11.2315 0.54235 10.7751 0.535111 10.2393L-0.464798 10.2528C-0.456413 10.8733 -0.368225 11.4404 -0.19055 11.9468L0.75305 11.6157ZM0.0351562 10.7461H3.30469V9.74609H0.0351562V10.7461ZM2.80469 10.2461C2.80469 10.6946 2.88523 11.1084 3.07373 11.4644L3.95752 10.9965C3.86477 10.8213 3.80469 10.5788 3.80469 10.2461H2.80469ZM3.08231 11.48C3.2713 11.8082 3.52805 12.0754 3.84828 12.2756L4.37828 11.4276C4.19851 11.3152 4.05683 11.1684 3.94894 10.981L3.08231 11.48ZM3.84828 12.2756C4.15566 12.4677 4.50549 12.6004 4.88976 12.6808L5.09462 11.702C4.80701 11.6418 4.5709 11.548 4.37828 11.4276L3.84828 12.2756ZM4.88976 12.6808C5.26298 12.7589 5.65697 12.7969 6.07031 12.7969V11.7969C5.71803 11.7969 5.39327 11.7645 5.09462 11.702L4.88976 12.6808ZM6.07031 12.7969C6.50297 12.7969 6.8994 12.7504 7.25231 12.6483L6.97425 11.6877C6.73342 11.7574 6.43453 11.7969 6.07031 11.7969V12.7969ZM7.25231 12.6483C7.58866 12.5509 7.89075 12.4172 8.14789 12.2392L7.57868 11.417C7.42956 11.5203 7.23165 11.6132 6.97425 11.6877L7.25231 12.6483ZM8.15543 12.2339C8.39977 12.058 8.60128 11.846 8.74388 11.5937L7.87331 11.1016C7.81278 11.2087 7.71742 11.317 7.57113 11.4224L8.15543 12.2339ZM8.74388 11.5937C8.88348 11.3467 8.96094 11.0791 8.96094 10.7969H7.96094C7.96094 10.8897 7.93684 10.9892 7.87331 11.1016L8.74388 11.5937ZM29.0831 7.64453L28.607 7.79722L29.0806 9.27395L29.5588 7.7987L29.0831 7.64453ZM31.2863 0.847656V0.347656H30.9227L30.8106 0.693484L31.2863 0.847656ZM34.8956 0.847656H35.3956V0.347656H34.8956V0.847656ZM34.8956 14.5V15H35.3956V14.5H34.8956ZM31.9191 14.5H31.4191V15H31.9191V14.5ZM31.9191 6.13281H32.4191L31.4427 5.98079L31.9191 6.13281ZM30.1613 11.6406L30.1585 12.1406L30.5259 12.1426L30.6376 11.7926L30.1613 11.6406ZM28.0284 11.6289L27.5527 11.7826L27.6639 12.1269L28.0257 12.1289L28.0284 11.6289ZM26.1769 5.89844L26.6527 5.74471L25.6769 5.89844H26.1769ZM26.1769 14.5V15H26.6769V14.5H26.1769ZM23.2003 14.5H22.7003V15H23.2003V14.5ZM23.2003 0.847656V0.347656H22.7003V0.847656H23.2003ZM26.9034 0.847656L27.3796 0.694971L27.2682 0.347656H26.9034V0.847656ZM29.5588 7.7987L31.7619 1.00183L30.8106 0.693484L28.6075 7.49036L29.5588 7.7987ZM31.2863 1.34766H34.8956V0.347656H31.2863V1.34766ZM34.3956 0.847656V14.5H35.3956V0.847656H34.3956ZM34.8956 14H31.9191V15H34.8956V14ZM32.4191 14.5V6.13281H31.4191V14.5H32.4191ZM31.4427 5.98079L29.6849 11.4886L30.6376 11.7926L32.3954 6.28483L31.4427 5.98079ZM30.164 11.1406L28.0312 11.1289L28.0257 12.1289L30.1585 12.1406L30.164 11.1406ZM28.5042 11.4752L26.6527 5.74471L25.7011 6.05217L27.5527 11.7826L28.5042 11.4752ZM25.6769 5.89844V14.5H26.6769V5.89844H25.6769ZM26.1769 14H23.2003V15H26.1769V14ZM23.7003 14.5V0.847656H22.7003V14.5H23.7003ZM23.2003 1.34766H26.9034V0.347656H23.2003V1.34766ZM26.4273 1.00034L28.607 7.79722L29.5592 7.49185L27.3796 0.694971L26.4273 1.00034ZM54.9553 11.9102L55.4234 11.7344L55.3016 11.4102H54.9553V11.9102ZM49.6116 11.9102V11.4102H49.2608L49.1414 11.74L49.6116 11.9102ZM48.6741 14.5V15H49.0248L49.1442 14.6702L48.6741 14.5ZM45.3459 14.5L44.8802 14.3181L44.6139 15H45.3459V14.5ZM50.678 0.847656V0.347656H50.3365L50.2122 0.665758L50.678 0.847656ZM53.842 0.847656L54.307 0.663682L54.1819 0.347656H53.842V0.847656ZM59.2444 14.5V15H59.98L59.7093 14.316L59.2444 14.5ZM55.928 14.5L55.4599 14.6758L55.5817 15H55.928V14.5ZM50.4905 9.51953L50.0207 9.34838L49.7762 10.0195H50.4905V9.51953ZM54.0647 9.51953V10.0195H54.7824L54.5337 9.3463L54.0647 9.51953ZM52.342 4.85547L52.8111 4.68221L52.808 4.67425L52.342 4.85547ZM52.26 4.64453L52.726 4.46331L52.2238 3.17196L51.7857 4.48642L52.26 4.64453ZM52.1897 4.85547L52.6597 5.02669L52.664 5.01358L52.1897 4.85547ZM54.9553 11.4102H49.6116V12.4102H54.9553V11.4102ZM49.1414 11.74L48.2039 14.3298L49.1442 14.6702L50.0817 12.0803L49.1414 11.74ZM48.6741 14H45.3459V15H48.6741V14ZM45.8117 14.6819L51.1437 1.02955L50.2122 0.665758L44.8802 14.3181L45.8117 14.6819ZM50.678 1.34766H53.842V0.347656H50.678V1.34766ZM53.3771 1.03163L58.7795 14.684L59.7093 14.316L54.307 0.663682L53.3771 1.03163ZM59.2444 14H55.928V15H59.2444V14ZM56.396 14.3242L55.4234 11.7344L54.4872 12.086L55.4599 14.6758L56.396 14.3242ZM50.4905 10.0195H54.0647V9.01953H50.4905V10.0195ZM54.5337 9.3463L52.8111 4.68223L51.873 5.0287L53.5957 9.69277L54.5337 9.3463ZM52.808 4.67425L52.726 4.46331L51.794 4.82575L51.876 5.03669L52.808 4.67425ZM51.7857 4.48642L51.7153 4.69735L52.664 5.01358L52.7343 4.80265L51.7857 4.48642ZM51.7199 4.68431L50.0207 9.34838L50.9603 9.69069L52.6595 5.02662L51.7199 4.68431ZM78.1556 10.1641L77.7368 10.4372L77.7409 10.4435L77.7452 10.4496L78.1556 10.1641ZM77.6166 9.67188L77.8779 9.24545L77.8676 9.23948L77.6166 9.67188ZM75.4603 8.94531L75.3347 9.42927L75.3415 9.43105L75.3485 9.43264L75.4603 8.94531ZM73.2923 8.3125L73.1271 8.78448L73.1342 8.78684L73.2923 8.3125ZM70.7377 6.36719L70.2859 6.58156L70.2874 6.58456L70.7377 6.36719ZM70.8197 2.95703L70.3839 2.7119L70.3826 2.71421L70.8197 2.95703ZM71.9681 1.69141L71.6832 1.28052L71.6788 1.28365L71.9681 1.69141ZM73.6673 0.929688L73.7955 1.41301L73.7994 1.41194L73.6673 0.929688ZM79.7494 1.63281L80.0327 1.22073L80.0252 1.2158L79.7494 1.63281ZM81.39 4.94922V5.44922H81.9002L81.8899 4.93912L81.39 4.94922ZM78.1205 4.94922H77.6205V5.44922H78.1205V4.94922ZM77.9447 4.21094L77.4974 4.43457L77.5006 4.44065L77.9447 4.21094ZM74.1127 3.51953L73.8314 3.10592L73.8205 3.11376L74.1127 3.51953ZM73.6673 4L74.0979 4.25441L74.1026 4.24603L73.6673 4ZM73.6556 5.16016L73.2166 5.39963L73.2215 5.40823L73.6556 5.16016ZM74.1244 5.59375L74.3908 5.17063L74.3817 5.16493L74.3724 5.15963L74.1244 5.59375ZM76.222 6.29688L76.1079 6.78368L76.1086 6.78383L76.222 6.29688ZM78.4017 6.92969L78.2317 7.39994L78.2368 7.40171L78.4017 6.92969ZM80.0541 7.76172L80.3519 7.36004L80.3473 7.35675L80.0541 7.76172ZM81.0267 12.4844L80.5938 12.2341L80.5926 12.2363L81.0267 12.4844ZM79.8548 13.7148L80.1262 14.1348L80.1292 14.1329L79.8548 13.7148ZM78.0502 14.4531L78.161 14.9407L78.165 14.9398L78.0502 14.4531ZM74.3705 14.5938L74.4355 14.0979L74.4284 14.0971L74.3705 14.5938ZM73.0228 14.3008L73.1784 13.8255L73.1681 13.8223L73.0228 14.3008ZM70.8314 12.9297L71.2156 12.6096L71.211 12.6043L70.8314 12.9297ZM70.1634 11.7812L69.6915 11.9468L69.6953 11.9568L70.1634 11.7812ZM69.9173 10.2461V9.74609H69.4105L69.4174 10.2528L69.9173 10.2461ZM73.1869 10.2461H73.6869V9.74609H73.1869V10.2461ZM73.3978 11.2305L72.9559 11.4644L72.9601 11.4723L72.9645 11.48L73.3978 11.2305ZM77.7455 11.8281L78.0301 12.2393L78.0376 12.2339L77.7455 11.8281ZM78.8431 10.7969C78.8431 10.464 78.7555 10.1509 78.5661 9.87853L77.7452 10.4496C77.8057 10.5366 77.8431 10.6454 77.8431 10.7969H78.8431ZM78.5744 9.89093C78.4058 9.63242 78.1637 9.42076 77.8778 9.24557L77.3553 10.0982C77.5538 10.2199 77.671 10.3363 77.7368 10.4372L78.5744 9.89093ZM77.8676 9.23948C77.5866 9.07629 77.2513 8.93437 76.8692 8.80979L76.5592 9.76052C76.8959 9.87032 77.1622 9.98621 77.3655 10.1043L77.8676 9.23948ZM76.8692 8.80979C76.4922 8.68686 76.0593 8.56979 75.5722 8.45798L75.3485 9.43264C75.8144 9.53959 76.2174 9.64908 76.5592 9.76052L76.8692 8.80979ZM75.586 8.46136C74.7817 8.25257 74.0702 8.04475 73.4505 7.83816L73.1342 8.78684C73.7801 9.00212 74.5139 9.21618 75.3347 9.42927L75.586 8.46136ZM73.4575 7.84057C72.8677 7.63415 72.3863 7.38903 72.0044 7.11126L71.4162 7.91999C71.8937 8.26722 72.467 8.55335 73.1272 8.78443L73.4575 7.84057ZM72.0044 7.11126C71.6375 6.84445 71.3688 6.52451 71.1879 6.14981L70.2874 6.58456C70.544 7.11612 70.9237 7.5618 71.4162 7.91999L72.0044 7.11126ZM71.1894 6.15282C71.0111 5.77726 70.9095 5.28526 70.9095 4.65625H69.9095C69.9095 5.38662 70.0267 6.03524 70.2859 6.58156L71.1894 6.15282ZM70.9095 4.65625C70.9095 4.08873 71.03 3.60803 71.2568 3.19985L70.3826 2.71421C70.0625 3.29041 69.9095 3.94252 69.9095 4.65625H70.9095ZM71.2555 3.20216C71.4992 2.76881 71.8311 2.40173 72.2575 2.09916L71.6788 1.28365C71.1364 1.66858 70.7026 2.14525 70.3839 2.7119L71.2555 3.20216ZM72.2531 2.10226C72.6837 1.80362 73.1955 1.57203 73.7954 1.413L73.5392 0.446377C72.8424 0.631092 72.2213 0.907316 71.6832 1.28055L72.2531 2.10226ZM73.7994 1.41194C74.4085 1.24516 75.0668 1.16016 75.7767 1.16016V0.160156C74.9866 0.160156 74.2387 0.254836 73.5353 0.447438L73.7994 1.41194ZM75.7767 1.16016C76.5247 1.16016 77.2172 1.23496 77.8561 1.38182L78.0801 0.407241C77.3596 0.241606 76.5912 0.160156 75.7767 0.160156V1.16016ZM77.8561 1.38182C78.4858 1.52658 79.0224 1.75137 79.4735 2.04982L80.0252 1.2158C79.4608 0.842377 78.8098 0.574986 78.0801 0.407241L77.8561 1.38182ZM79.4661 2.04483C79.8982 2.34191 80.2388 2.72549 80.4909 3.2024L81.375 2.7351C81.049 2.11826 80.6005 1.61122 80.0326 1.22079L79.4661 2.04483ZM80.4909 3.2024C80.7355 3.66518 80.8757 4.24479 80.8901 4.95932L81.8899 4.93912C81.8731 4.10678 81.7085 3.36607 81.375 2.7351L80.4909 3.2024ZM81.39 4.44922H78.1205V5.44922H81.39V4.44922ZM78.6205 4.94922C78.6205 4.60707 78.5442 4.28176 78.3888 3.98123L77.5006 4.44065C77.5795 4.59324 77.6205 4.76011 77.6205 4.94922H78.6205ZM78.3919 3.98733C78.2406 3.68482 78.0281 3.42757 77.7595 3.21861L77.1455 4.00796C77.2987 4.12712 77.4144 4.2683 77.4975 4.43454L78.3919 3.98733ZM77.7595 3.21861C77.4992 3.01615 77.2015 2.86195 76.8723 2.75222L76.5561 3.7009C76.7894 3.77868 76.984 3.88229 77.1455 4.00796L77.7595 3.21861ZM76.8723 2.75222C76.535 2.63976 76.1763 2.58594 75.8002 2.58594V3.58594C76.0802 3.58594 76.331 3.62586 76.5561 3.7009L76.8723 2.75222ZM75.8002 2.58594C75.3988 2.58594 75.028 2.62849 74.6937 2.72137L74.9613 3.68488C75.1895 3.62151 75.4671 3.58594 75.8002 3.58594V2.58594ZM74.6937 2.72137C74.3718 2.81077 74.0811 2.93637 73.8315 3.10607L74.3938 3.93299C74.5349 3.83707 74.7207 3.75173 74.9613 3.68488L74.6937 2.72137ZM73.8205 3.11376C73.5762 3.28969 73.3747 3.50169 73.2321 3.75397L74.1026 4.24603C74.1632 4.13893 74.2585 4.03063 74.4048 3.9253L73.8205 3.11376ZM73.2369 3.74564C73.0929 3.98937 73.015 4.25625 73.015 4.53906H74.015C74.015 4.44688 74.0387 4.35438 74.0978 4.25436L73.2369 3.74564ZM73.015 4.53906C73.015 4.84534 73.0744 5.13881 73.2167 5.39958L74.0946 4.92073C74.0493 4.83775 74.015 4.71716 74.015 4.53906H73.015ZM73.2215 5.40823C73.3719 5.67149 73.6051 5.87288 73.8763 6.02787L74.3724 5.15963C74.2062 5.06462 74.1268 4.97694 74.0897 4.91209L73.2215 5.40823ZM73.858 6.01687C74.1168 6.17984 74.437 6.31646 74.8048 6.43349L75.108 5.48057C74.7883 5.37885 74.5538 5.27329 74.3908 5.17063L73.858 6.01687ZM74.8048 6.43349C75.1649 6.54806 75.6001 6.66466 76.1079 6.78368L76.3361 5.81007C75.844 5.69471 75.4354 5.58475 75.108 5.48057L74.8048 6.43349ZM76.1086 6.78383C76.8977 6.96771 77.605 7.17338 78.2318 7.39991L78.5717 6.45946C77.9016 6.21725 77.1557 6.00104 76.3355 5.80992L76.1086 6.78383ZM78.2368 7.40171C78.8494 7.61576 79.3547 7.87263 79.7608 8.16669L80.3473 7.35675C79.8471 6.99456 79.2509 6.69674 78.5666 6.45767L78.2368 7.40171ZM79.7563 8.16337C80.1507 8.4558 80.4461 8.80329 80.6513 9.20699L81.5428 8.75394C81.2636 8.20452 80.8637 7.73951 80.3518 7.36006L79.7563 8.16337ZM80.6513 9.20699C80.8491 9.59621 80.9603 10.096 80.9603 10.7266H81.9603C81.9603 9.98216 81.8294 9.31785 81.5428 8.75394L80.6513 9.20699ZM80.9603 10.7266C80.9603 11.3251 80.8322 11.8218 80.5939 12.2341L81.4596 12.7346C81.7994 12.1469 81.9603 11.4718 81.9603 10.7266H80.9603ZM80.5926 12.2363C80.3526 12.6563 80.0183 13.0095 79.5805 13.2968L80.1292 14.1329C80.6914 13.7639 81.1383 13.2969 81.4608 12.7324L80.5926 12.2363ZM79.5835 13.2949C79.1315 13.5869 78.5849 13.8132 77.9353 13.9665L78.165 14.9398C78.906 14.7649 79.5626 14.499 80.1262 14.1348L79.5835 13.2949ZM77.9393 13.9656C77.2932 14.1124 76.5809 14.1875 75.8002 14.1875V15.1875C76.6444 15.1875 77.4321 15.1063 78.161 14.9407L77.9393 13.9656ZM75.8002 14.1875C75.3455 14.1875 74.8907 14.1577 74.4355 14.098L74.3055 15.0895C74.8034 15.1548 75.3017 15.1875 75.8002 15.1875V14.1875ZM74.4284 14.0971C73.9914 14.0461 73.5749 13.9554 73.1783 13.8256L72.8673 14.776C73.3301 14.9274 73.8121 15.032 74.3125 15.0904L74.4284 14.0971ZM73.1681 13.8223C72.7685 13.7011 72.4006 13.5379 72.0626 13.3338L71.5455 14.1897C71.9576 14.4386 72.4021 14.6349 72.8776 14.7792L73.1681 13.8223ZM72.0626 13.3338C71.7339 13.1352 71.4525 12.8939 71.2155 12.6096L70.4473 13.2498C70.7572 13.6217 71.1242 13.9351 71.5455 14.1897L72.0626 13.3338ZM71.211 12.6043C70.9708 12.324 70.7768 11.9929 70.6316 11.6057L69.6953 11.9568C69.8782 12.4446 70.1295 12.8791 70.4518 13.2551L71.211 12.6043ZM70.6352 11.6157C70.5004 11.2315 70.4245 10.7751 70.4173 10.2393L69.4174 10.2528C69.4258 10.8733 69.514 11.4404 69.6916 11.9468L70.6352 11.6157ZM69.9173 10.7461H73.1869V9.74609H69.9173V10.7461ZM72.6869 10.2461C72.6869 10.6946 72.7674 11.1084 72.9559 11.4644L73.8397 10.9965C73.747 10.8213 73.6869 10.5788 73.6869 10.2461H72.6869ZM72.9645 11.48C73.1535 11.8082 73.4102 12.0754 73.7305 12.2756L74.2605 11.4276C74.0807 11.3152 73.939 11.1684 73.8311 10.981L72.9645 11.48ZM73.7305 12.2756C74.0378 12.4677 74.3877 12.6004 74.7719 12.6808L74.9768 11.702C74.6892 11.6418 74.4531 11.548 74.2605 11.4276L73.7305 12.2756ZM74.7719 12.6808C75.1452 12.7589 75.5392 12.7969 75.9525 12.7969V11.7969C75.6002 11.7969 75.2755 11.7645 74.9768 11.702L74.7719 12.6808ZM75.9525 12.7969C76.3852 12.7969 76.7816 12.7504 77.1345 12.6483L76.8564 11.6877C76.6156 11.7574 76.3167 11.7969 75.9525 11.7969V12.7969ZM77.1345 12.6483C77.4708 12.5509 77.7729 12.4172 78.0301 12.2392L77.4609 11.417C77.3118 11.5203 77.1138 11.6132 76.8564 11.6877L77.1345 12.6483ZM78.0376 12.2339C78.282 12.058 78.4835 11.846 78.6261 11.5937L77.7555 11.1016C77.695 11.2087 77.5996 11.317 77.4533 11.4224L78.0376 12.2339ZM78.6261 11.5937C78.7657 11.3467 78.8431 11.0791 78.8431 10.7969H77.8431C77.8431 10.8897 77.819 10.9892 77.7555 11.1016L78.6261 11.5937ZM103.958 14.5V15H104.458V14.5H103.958ZM100.711 14.5H100.211V15H100.711V14.5ZM100.711 9.19141H101.211V8.69141H100.711V9.19141ZM96.5864 9.19141V8.69141H96.0864V9.19141H96.5864ZM96.5864 14.5V15H97.0864V14.5H96.5864ZM93.3403 14.5H92.8403V15H93.3403V14.5ZM93.3403 0.847656V0.347656H92.8403V0.847656H93.3403ZM96.5864 0.847656H97.0864V0.347656H96.5864V0.847656ZM96.5864 6.57812H96.0864V7.07812H96.5864V6.57812ZM100.711 6.57812V7.07812H101.211V6.57812H100.711ZM100.711 0.847656V0.347656H100.211V0.847656H100.711ZM103.958 0.847656H104.458V0.347656H103.958V0.847656ZM103.958 14H100.711V15H103.958V14ZM101.211 14.5V9.19141H100.211V14.5H101.211ZM100.711 8.69141H96.5864V9.69141H100.711V8.69141ZM96.0864 9.19141V14.5H97.0864V9.19141H96.0864ZM96.5864 14H93.3403V15H96.5864V14ZM93.8403 14.5V0.847656H92.8403V14.5H93.8403ZM93.3403 1.34766H96.5864V0.347656H93.3403V1.34766ZM96.0864 0.847656V6.57812H97.0864V0.847656H96.0864ZM96.5864 7.07812H100.711V6.07812H96.5864V7.07812ZM101.211 6.57812V0.847656H100.211V6.57812H101.211ZM100.711 1.34766H103.958V0.347656H100.711V1.34766ZM103.458 0.847656V14.5H104.458V0.847656H103.458ZM140.632 0.859375V0.359375H140.132V0.859375H140.632ZM150.37 0.859375H150.87V0.359375H150.37V0.859375ZM150.37 3.50781V4.00781H150.87V3.50781H150.37ZM147.1 3.50781V3.00781H146.6V3.50781H147.1ZM147.1 11.8516H146.6V12.3516H147.1V11.8516ZM150.37 11.8516H150.87V11.3516H150.37V11.8516ZM150.37 14.5V15H150.87V14.5H150.37ZM140.632 14.5H140.132V15H140.632V14.5ZM140.632 11.8516V11.3516H140.132V11.8516H140.632ZM143.819 11.8516V12.3516H144.319V11.8516H143.819ZM143.819 3.50781H144.319V3.00781H143.819V3.50781ZM140.632 3.50781H140.132V4.00781H140.632V3.50781ZM140.632 1.35938H150.37V0.359375H140.632V1.35938ZM149.87 0.859375V3.50781H150.87V0.859375H149.87ZM150.37 3.00781H147.1V4.00781H150.37V3.00781ZM146.6 3.50781V11.8516H147.6V3.50781H146.6ZM147.1 12.3516H150.37V11.3516H147.1V12.3516ZM149.87 11.8516V14.5H150.87V11.8516H149.87ZM150.37 14H140.632V15H150.37V14ZM141.132 14.5V11.8516H140.132V14.5H141.132ZM140.632 12.3516H143.819V11.3516H140.632V12.3516ZM144.319 11.8516V3.50781H143.319V11.8516H144.319ZM143.819 3.00781H140.632V4.00781H143.819V3.00781ZM141.132 3.50781V0.859375H140.132V3.50781H141.132ZM175.363 3.46094V3.96094H175.863V3.46094H175.363ZM170.547 3.46094V2.96094H170.047V3.46094H170.547ZM170.547 14.5V15H171.047V14.5H170.547ZM167.254 14.5H166.754V15H167.254V14.5ZM167.254 3.46094H167.754V2.96094H167.254V3.46094ZM162.543 3.46094H162.043V3.96094H162.543V3.46094ZM162.543 0.847656V0.347656H162.043V0.847656H162.543ZM175.363 0.847656H175.863V0.347656H175.363V0.847656ZM175.363 2.96094H170.547V3.96094H175.363V2.96094ZM170.047 3.46094V14.5H171.047V3.46094H170.047ZM170.547 14H167.254V15H170.547V14ZM167.754 14.5V3.46094H166.754V14.5H167.754ZM167.254 2.96094H162.543V3.96094H167.254V2.96094ZM163.043 3.46094V0.847656H162.043V3.46094H163.043ZM162.543 1.34766H175.363V0.347656H162.543V1.34766ZM174.863 0.847656V3.46094H175.863V0.847656H174.863Z" fill="black" mask="url(#path-1-outside-1_67_69)"/>
</svg>
